%TF.GenerationSoftware,KiCad,Pcbnew,7.0.2*%
%TF.CreationDate,2023-06-13T00:04:42+03:00*%
%TF.ProjectId,Push_Pull,50757368-5f50-4756-9c6c-2e6b69636164,rev?*%
%TF.SameCoordinates,Original*%
%TF.FileFunction,Legend,Bot*%
%TF.FilePolarity,Positive*%
%FSLAX46Y46*%
G04 Gerber Fmt 4.6, Leading zero omitted, Abs format (unit mm)*
G04 Created by KiCad (PCBNEW 7.0.2) date 2023-06-13 00:04:42*
%MOMM*%
%LPD*%
G01*
G04 APERTURE LIST*
%ADD10C,0.150000*%
%ADD11C,0.120000*%
G04 APERTURE END LIST*
D10*
%TO.C,C17*%
X112381380Y-46601142D02*
X112429000Y-46553523D01*
X112429000Y-46553523D02*
X112476619Y-46410666D01*
X112476619Y-46410666D02*
X112476619Y-46315428D01*
X112476619Y-46315428D02*
X112429000Y-46172571D01*
X112429000Y-46172571D02*
X112333761Y-46077333D01*
X112333761Y-46077333D02*
X112238523Y-46029714D01*
X112238523Y-46029714D02*
X112048047Y-45982095D01*
X112048047Y-45982095D02*
X111905190Y-45982095D01*
X111905190Y-45982095D02*
X111714714Y-46029714D01*
X111714714Y-46029714D02*
X111619476Y-46077333D01*
X111619476Y-46077333D02*
X111524238Y-46172571D01*
X111524238Y-46172571D02*
X111476619Y-46315428D01*
X111476619Y-46315428D02*
X111476619Y-46410666D01*
X111476619Y-46410666D02*
X111524238Y-46553523D01*
X111524238Y-46553523D02*
X111571857Y-46601142D01*
X112476619Y-47553523D02*
X112476619Y-46982095D01*
X112476619Y-47267809D02*
X111476619Y-47267809D01*
X111476619Y-47267809D02*
X111619476Y-47172571D01*
X111619476Y-47172571D02*
X111714714Y-47077333D01*
X111714714Y-47077333D02*
X111762333Y-46982095D01*
X111476619Y-47886857D02*
X111476619Y-48553523D01*
X111476619Y-48553523D02*
X112476619Y-48124952D01*
%TO.C,R8*%
X126236619Y-85685333D02*
X125760428Y-85352000D01*
X126236619Y-85113905D02*
X125236619Y-85113905D01*
X125236619Y-85113905D02*
X125236619Y-85494857D01*
X125236619Y-85494857D02*
X125284238Y-85590095D01*
X125284238Y-85590095D02*
X125331857Y-85637714D01*
X125331857Y-85637714D02*
X125427095Y-85685333D01*
X125427095Y-85685333D02*
X125569952Y-85685333D01*
X125569952Y-85685333D02*
X125665190Y-85637714D01*
X125665190Y-85637714D02*
X125712809Y-85590095D01*
X125712809Y-85590095D02*
X125760428Y-85494857D01*
X125760428Y-85494857D02*
X125760428Y-85113905D01*
X125665190Y-86256762D02*
X125617571Y-86161524D01*
X125617571Y-86161524D02*
X125569952Y-86113905D01*
X125569952Y-86113905D02*
X125474714Y-86066286D01*
X125474714Y-86066286D02*
X125427095Y-86066286D01*
X125427095Y-86066286D02*
X125331857Y-86113905D01*
X125331857Y-86113905D02*
X125284238Y-86161524D01*
X125284238Y-86161524D02*
X125236619Y-86256762D01*
X125236619Y-86256762D02*
X125236619Y-86447238D01*
X125236619Y-86447238D02*
X125284238Y-86542476D01*
X125284238Y-86542476D02*
X125331857Y-86590095D01*
X125331857Y-86590095D02*
X125427095Y-86637714D01*
X125427095Y-86637714D02*
X125474714Y-86637714D01*
X125474714Y-86637714D02*
X125569952Y-86590095D01*
X125569952Y-86590095D02*
X125617571Y-86542476D01*
X125617571Y-86542476D02*
X125665190Y-86447238D01*
X125665190Y-86447238D02*
X125665190Y-86256762D01*
X125665190Y-86256762D02*
X125712809Y-86161524D01*
X125712809Y-86161524D02*
X125760428Y-86113905D01*
X125760428Y-86113905D02*
X125855666Y-86066286D01*
X125855666Y-86066286D02*
X126046142Y-86066286D01*
X126046142Y-86066286D02*
X126141380Y-86113905D01*
X126141380Y-86113905D02*
X126189000Y-86161524D01*
X126189000Y-86161524D02*
X126236619Y-86256762D01*
X126236619Y-86256762D02*
X126236619Y-86447238D01*
X126236619Y-86447238D02*
X126189000Y-86542476D01*
X126189000Y-86542476D02*
X126141380Y-86590095D01*
X126141380Y-86590095D02*
X126046142Y-86637714D01*
X126046142Y-86637714D02*
X125855666Y-86637714D01*
X125855666Y-86637714D02*
X125760428Y-86590095D01*
X125760428Y-86590095D02*
X125712809Y-86542476D01*
X125712809Y-86542476D02*
X125665190Y-86447238D01*
%TO.C,C7*%
X110095380Y-46315333D02*
X110143000Y-46267714D01*
X110143000Y-46267714D02*
X110190619Y-46124857D01*
X110190619Y-46124857D02*
X110190619Y-46029619D01*
X110190619Y-46029619D02*
X110143000Y-45886762D01*
X110143000Y-45886762D02*
X110047761Y-45791524D01*
X110047761Y-45791524D02*
X109952523Y-45743905D01*
X109952523Y-45743905D02*
X109762047Y-45696286D01*
X109762047Y-45696286D02*
X109619190Y-45696286D01*
X109619190Y-45696286D02*
X109428714Y-45743905D01*
X109428714Y-45743905D02*
X109333476Y-45791524D01*
X109333476Y-45791524D02*
X109238238Y-45886762D01*
X109238238Y-45886762D02*
X109190619Y-46029619D01*
X109190619Y-46029619D02*
X109190619Y-46124857D01*
X109190619Y-46124857D02*
X109238238Y-46267714D01*
X109238238Y-46267714D02*
X109285857Y-46315333D01*
X109190619Y-46648667D02*
X109190619Y-47315333D01*
X109190619Y-47315333D02*
X110190619Y-46886762D01*
%TO.C,C8*%
X130669380Y-96226333D02*
X130717000Y-96178714D01*
X130717000Y-96178714D02*
X130764619Y-96035857D01*
X130764619Y-96035857D02*
X130764619Y-95940619D01*
X130764619Y-95940619D02*
X130717000Y-95797762D01*
X130717000Y-95797762D02*
X130621761Y-95702524D01*
X130621761Y-95702524D02*
X130526523Y-95654905D01*
X130526523Y-95654905D02*
X130336047Y-95607286D01*
X130336047Y-95607286D02*
X130193190Y-95607286D01*
X130193190Y-95607286D02*
X130002714Y-95654905D01*
X130002714Y-95654905D02*
X129907476Y-95702524D01*
X129907476Y-95702524D02*
X129812238Y-95797762D01*
X129812238Y-95797762D02*
X129764619Y-95940619D01*
X129764619Y-95940619D02*
X129764619Y-96035857D01*
X129764619Y-96035857D02*
X129812238Y-96178714D01*
X129812238Y-96178714D02*
X129859857Y-96226333D01*
X130193190Y-96797762D02*
X130145571Y-96702524D01*
X130145571Y-96702524D02*
X130097952Y-96654905D01*
X130097952Y-96654905D02*
X130002714Y-96607286D01*
X130002714Y-96607286D02*
X129955095Y-96607286D01*
X129955095Y-96607286D02*
X129859857Y-96654905D01*
X129859857Y-96654905D02*
X129812238Y-96702524D01*
X129812238Y-96702524D02*
X129764619Y-96797762D01*
X129764619Y-96797762D02*
X129764619Y-96988238D01*
X129764619Y-96988238D02*
X129812238Y-97083476D01*
X129812238Y-97083476D02*
X129859857Y-97131095D01*
X129859857Y-97131095D02*
X129955095Y-97178714D01*
X129955095Y-97178714D02*
X130002714Y-97178714D01*
X130002714Y-97178714D02*
X130097952Y-97131095D01*
X130097952Y-97131095D02*
X130145571Y-97083476D01*
X130145571Y-97083476D02*
X130193190Y-96988238D01*
X130193190Y-96988238D02*
X130193190Y-96797762D01*
X130193190Y-96797762D02*
X130240809Y-96702524D01*
X130240809Y-96702524D02*
X130288428Y-96654905D01*
X130288428Y-96654905D02*
X130383666Y-96607286D01*
X130383666Y-96607286D02*
X130574142Y-96607286D01*
X130574142Y-96607286D02*
X130669380Y-96654905D01*
X130669380Y-96654905D02*
X130717000Y-96702524D01*
X130717000Y-96702524D02*
X130764619Y-96797762D01*
X130764619Y-96797762D02*
X130764619Y-96988238D01*
X130764619Y-96988238D02*
X130717000Y-97083476D01*
X130717000Y-97083476D02*
X130669380Y-97131095D01*
X130669380Y-97131095D02*
X130574142Y-97178714D01*
X130574142Y-97178714D02*
X130383666Y-97178714D01*
X130383666Y-97178714D02*
X130288428Y-97131095D01*
X130288428Y-97131095D02*
X130240809Y-97083476D01*
X130240809Y-97083476D02*
X130193190Y-96988238D01*
%TO.C,C9*%
X128891380Y-96353333D02*
X128939000Y-96305714D01*
X128939000Y-96305714D02*
X128986619Y-96162857D01*
X128986619Y-96162857D02*
X128986619Y-96067619D01*
X128986619Y-96067619D02*
X128939000Y-95924762D01*
X128939000Y-95924762D02*
X128843761Y-95829524D01*
X128843761Y-95829524D02*
X128748523Y-95781905D01*
X128748523Y-95781905D02*
X128558047Y-95734286D01*
X128558047Y-95734286D02*
X128415190Y-95734286D01*
X128415190Y-95734286D02*
X128224714Y-95781905D01*
X128224714Y-95781905D02*
X128129476Y-95829524D01*
X128129476Y-95829524D02*
X128034238Y-95924762D01*
X128034238Y-95924762D02*
X127986619Y-96067619D01*
X127986619Y-96067619D02*
X127986619Y-96162857D01*
X127986619Y-96162857D02*
X128034238Y-96305714D01*
X128034238Y-96305714D02*
X128081857Y-96353333D01*
X128986619Y-96829524D02*
X128986619Y-97020000D01*
X128986619Y-97020000D02*
X128939000Y-97115238D01*
X128939000Y-97115238D02*
X128891380Y-97162857D01*
X128891380Y-97162857D02*
X128748523Y-97258095D01*
X128748523Y-97258095D02*
X128558047Y-97305714D01*
X128558047Y-97305714D02*
X128177095Y-97305714D01*
X128177095Y-97305714D02*
X128081857Y-97258095D01*
X128081857Y-97258095D02*
X128034238Y-97210476D01*
X128034238Y-97210476D02*
X127986619Y-97115238D01*
X127986619Y-97115238D02*
X127986619Y-96924762D01*
X127986619Y-96924762D02*
X128034238Y-96829524D01*
X128034238Y-96829524D02*
X128081857Y-96781905D01*
X128081857Y-96781905D02*
X128177095Y-96734286D01*
X128177095Y-96734286D02*
X128415190Y-96734286D01*
X128415190Y-96734286D02*
X128510428Y-96781905D01*
X128510428Y-96781905D02*
X128558047Y-96829524D01*
X128558047Y-96829524D02*
X128605666Y-96924762D01*
X128605666Y-96924762D02*
X128605666Y-97115238D01*
X128605666Y-97115238D02*
X128558047Y-97210476D01*
X128558047Y-97210476D02*
X128510428Y-97258095D01*
X128510428Y-97258095D02*
X128415190Y-97305714D01*
%TO.C,R6*%
X135167666Y-61756619D02*
X135500999Y-61280428D01*
X135739094Y-61756619D02*
X135739094Y-60756619D01*
X135739094Y-60756619D02*
X135358142Y-60756619D01*
X135358142Y-60756619D02*
X135262904Y-60804238D01*
X135262904Y-60804238D02*
X135215285Y-60851857D01*
X135215285Y-60851857D02*
X135167666Y-60947095D01*
X135167666Y-60947095D02*
X135167666Y-61089952D01*
X135167666Y-61089952D02*
X135215285Y-61185190D01*
X135215285Y-61185190D02*
X135262904Y-61232809D01*
X135262904Y-61232809D02*
X135358142Y-61280428D01*
X135358142Y-61280428D02*
X135739094Y-61280428D01*
X134310523Y-60756619D02*
X134500999Y-60756619D01*
X134500999Y-60756619D02*
X134596237Y-60804238D01*
X134596237Y-60804238D02*
X134643856Y-60851857D01*
X134643856Y-60851857D02*
X134739094Y-60994714D01*
X134739094Y-60994714D02*
X134786713Y-61185190D01*
X134786713Y-61185190D02*
X134786713Y-61566142D01*
X134786713Y-61566142D02*
X134739094Y-61661380D01*
X134739094Y-61661380D02*
X134691475Y-61709000D01*
X134691475Y-61709000D02*
X134596237Y-61756619D01*
X134596237Y-61756619D02*
X134405761Y-61756619D01*
X134405761Y-61756619D02*
X134310523Y-61709000D01*
X134310523Y-61709000D02*
X134262904Y-61661380D01*
X134262904Y-61661380D02*
X134215285Y-61566142D01*
X134215285Y-61566142D02*
X134215285Y-61328047D01*
X134215285Y-61328047D02*
X134262904Y-61232809D01*
X134262904Y-61232809D02*
X134310523Y-61185190D01*
X134310523Y-61185190D02*
X134405761Y-61137571D01*
X134405761Y-61137571D02*
X134596237Y-61137571D01*
X134596237Y-61137571D02*
X134691475Y-61185190D01*
X134691475Y-61185190D02*
X134739094Y-61232809D01*
X134739094Y-61232809D02*
X134786713Y-61328047D01*
%TO.C,C22*%
X114540380Y-46728142D02*
X114588000Y-46680523D01*
X114588000Y-46680523D02*
X114635619Y-46537666D01*
X114635619Y-46537666D02*
X114635619Y-46442428D01*
X114635619Y-46442428D02*
X114588000Y-46299571D01*
X114588000Y-46299571D02*
X114492761Y-46204333D01*
X114492761Y-46204333D02*
X114397523Y-46156714D01*
X114397523Y-46156714D02*
X114207047Y-46109095D01*
X114207047Y-46109095D02*
X114064190Y-46109095D01*
X114064190Y-46109095D02*
X113873714Y-46156714D01*
X113873714Y-46156714D02*
X113778476Y-46204333D01*
X113778476Y-46204333D02*
X113683238Y-46299571D01*
X113683238Y-46299571D02*
X113635619Y-46442428D01*
X113635619Y-46442428D02*
X113635619Y-46537666D01*
X113635619Y-46537666D02*
X113683238Y-46680523D01*
X113683238Y-46680523D02*
X113730857Y-46728142D01*
X113730857Y-47109095D02*
X113683238Y-47156714D01*
X113683238Y-47156714D02*
X113635619Y-47251952D01*
X113635619Y-47251952D02*
X113635619Y-47490047D01*
X113635619Y-47490047D02*
X113683238Y-47585285D01*
X113683238Y-47585285D02*
X113730857Y-47632904D01*
X113730857Y-47632904D02*
X113826095Y-47680523D01*
X113826095Y-47680523D02*
X113921333Y-47680523D01*
X113921333Y-47680523D02*
X114064190Y-47632904D01*
X114064190Y-47632904D02*
X114635619Y-47061476D01*
X114635619Y-47061476D02*
X114635619Y-47680523D01*
X113730857Y-48061476D02*
X113683238Y-48109095D01*
X113683238Y-48109095D02*
X113635619Y-48204333D01*
X113635619Y-48204333D02*
X113635619Y-48442428D01*
X113635619Y-48442428D02*
X113683238Y-48537666D01*
X113683238Y-48537666D02*
X113730857Y-48585285D01*
X113730857Y-48585285D02*
X113826095Y-48632904D01*
X113826095Y-48632904D02*
X113921333Y-48632904D01*
X113921333Y-48632904D02*
X114064190Y-48585285D01*
X114064190Y-48585285D02*
X114635619Y-48013857D01*
X114635619Y-48013857D02*
X114635619Y-48632904D01*
%TO.C,C6*%
X108063380Y-46442333D02*
X108111000Y-46394714D01*
X108111000Y-46394714D02*
X108158619Y-46251857D01*
X108158619Y-46251857D02*
X108158619Y-46156619D01*
X108158619Y-46156619D02*
X108111000Y-46013762D01*
X108111000Y-46013762D02*
X108015761Y-45918524D01*
X108015761Y-45918524D02*
X107920523Y-45870905D01*
X107920523Y-45870905D02*
X107730047Y-45823286D01*
X107730047Y-45823286D02*
X107587190Y-45823286D01*
X107587190Y-45823286D02*
X107396714Y-45870905D01*
X107396714Y-45870905D02*
X107301476Y-45918524D01*
X107301476Y-45918524D02*
X107206238Y-46013762D01*
X107206238Y-46013762D02*
X107158619Y-46156619D01*
X107158619Y-46156619D02*
X107158619Y-46251857D01*
X107158619Y-46251857D02*
X107206238Y-46394714D01*
X107206238Y-46394714D02*
X107253857Y-46442333D01*
X107158619Y-47299476D02*
X107158619Y-47109000D01*
X107158619Y-47109000D02*
X107206238Y-47013762D01*
X107206238Y-47013762D02*
X107253857Y-46966143D01*
X107253857Y-46966143D02*
X107396714Y-46870905D01*
X107396714Y-46870905D02*
X107587190Y-46823286D01*
X107587190Y-46823286D02*
X107968142Y-46823286D01*
X107968142Y-46823286D02*
X108063380Y-46870905D01*
X108063380Y-46870905D02*
X108111000Y-46918524D01*
X108111000Y-46918524D02*
X108158619Y-47013762D01*
X108158619Y-47013762D02*
X108158619Y-47204238D01*
X108158619Y-47204238D02*
X108111000Y-47299476D01*
X108111000Y-47299476D02*
X108063380Y-47347095D01*
X108063380Y-47347095D02*
X107968142Y-47394714D01*
X107968142Y-47394714D02*
X107730047Y-47394714D01*
X107730047Y-47394714D02*
X107634809Y-47347095D01*
X107634809Y-47347095D02*
X107587190Y-47299476D01*
X107587190Y-47299476D02*
X107539571Y-47204238D01*
X107539571Y-47204238D02*
X107539571Y-47013762D01*
X107539571Y-47013762D02*
X107587190Y-46918524D01*
X107587190Y-46918524D02*
X107634809Y-46870905D01*
X107634809Y-46870905D02*
X107730047Y-46823286D01*
%TO.C,U4*%
X178708904Y-105966619D02*
X178708904Y-106776142D01*
X178708904Y-106776142D02*
X178661285Y-106871380D01*
X178661285Y-106871380D02*
X178613666Y-106919000D01*
X178613666Y-106919000D02*
X178518428Y-106966619D01*
X178518428Y-106966619D02*
X178327952Y-106966619D01*
X178327952Y-106966619D02*
X178232714Y-106919000D01*
X178232714Y-106919000D02*
X178185095Y-106871380D01*
X178185095Y-106871380D02*
X178137476Y-106776142D01*
X178137476Y-106776142D02*
X178137476Y-105966619D01*
X177232714Y-106299952D02*
X177232714Y-106966619D01*
X177470809Y-105919000D02*
X177708904Y-106633285D01*
X177708904Y-106633285D02*
X177089857Y-106633285D01*
%TO.C,R7*%
X135167666Y-68106619D02*
X135500999Y-67630428D01*
X135739094Y-68106619D02*
X135739094Y-67106619D01*
X135739094Y-67106619D02*
X135358142Y-67106619D01*
X135358142Y-67106619D02*
X135262904Y-67154238D01*
X135262904Y-67154238D02*
X135215285Y-67201857D01*
X135215285Y-67201857D02*
X135167666Y-67297095D01*
X135167666Y-67297095D02*
X135167666Y-67439952D01*
X135167666Y-67439952D02*
X135215285Y-67535190D01*
X135215285Y-67535190D02*
X135262904Y-67582809D01*
X135262904Y-67582809D02*
X135358142Y-67630428D01*
X135358142Y-67630428D02*
X135739094Y-67630428D01*
X134834332Y-67106619D02*
X134167666Y-67106619D01*
X134167666Y-67106619D02*
X134596237Y-68106619D01*
D11*
%TO.C,C17*%
X111025000Y-43822252D02*
X111025000Y-43299748D01*
X112495000Y-43822252D02*
X112495000Y-43299748D01*
%TO.C,R8*%
X119514000Y-89738252D02*
X119514000Y-81965748D01*
X124834000Y-89738252D02*
X124834000Y-81965748D01*
%TO.C,C7*%
X108993000Y-43822252D02*
X108993000Y-43299748D01*
X110463000Y-43822252D02*
X110463000Y-43299748D01*
%TO.C,C8*%
X128983000Y-99681420D02*
X128983000Y-99962580D01*
X127963000Y-99681420D02*
X127963000Y-99962580D01*
%TO.C,C9*%
X130685000Y-99681420D02*
X130685000Y-99962580D01*
X129665000Y-99681420D02*
X129665000Y-99962580D01*
%TO.C,R6*%
X132823936Y-56964000D02*
X137178064Y-56964000D01*
X132823936Y-60384000D02*
X137178064Y-60384000D01*
%TO.C,C22*%
X113184000Y-43822252D02*
X113184000Y-43299748D01*
X114654000Y-43822252D02*
X114654000Y-43299748D01*
%TO.C,C6*%
X106961000Y-43822252D02*
X106961000Y-43299748D01*
X108431000Y-43822252D02*
X108431000Y-43299748D01*
%TO.C,U4*%
X181182000Y-112704000D02*
X174712000Y-112704000D01*
X181182000Y-107504000D02*
X181182000Y-112704000D01*
X178947000Y-107504000D02*
X181182000Y-107504000D01*
X174712000Y-112704000D02*
X174712000Y-107504000D01*
X174712000Y-107504000D02*
X176947000Y-107504000D01*
X176947000Y-107504000D02*
G75*
G03*
X178947000Y-107504000I1000000J0D01*
G01*
%TO.C,R7*%
X132823936Y-63314000D02*
X137178064Y-63314000D01*
X132823936Y-66734000D02*
X137178064Y-66734000D01*
%TD*%
M02*
