M48
; DRILL file {KiCad 7.0.2} date Tue Jun 13 00:07:35 2023
; FORMAT={-:-/ absolute / inch / decimal}
; #@! TF.CreationDate,2023-06-13T00:07:35+03:00
; #@! TF.GenerationSoftware,Kicad,Pcbnew,7.0.2
; #@! TF.FileFunction,Plated,1,2,PTH
FMAT,2
INCH
; #@! TA.AperFunction,Plated,PTH,ComponentDrill
T1C0.0276
; #@! TA.AperFunction,Plated,PTH,ComponentDrill
T2C0.0295
; #@! TA.AperFunction,Plated,PTH,ViaDrill
T3C0.0315
; #@! TA.AperFunction,Plated,PTH,ComponentDrill
T4C0.0315
; #@! TA.AperFunction,Plated,PTH,ComponentDrill
T5C0.0394
; #@! TA.AperFunction,Plated,PTH,ComponentDrill
T6C0.0433
; #@! TA.AperFunction,Plated,PTH,ComponentDrill
T7C0.0472
; #@! TA.AperFunction,Plated,PTH,ComponentDrill
T8C0.0709
%
G90
G05
T1
X4.505Y-4.13
X4.805Y-4.13
X5.775Y-3.91
X5.775Y-4.11
T2
X7.5808Y-4.585
X7.5808Y-4.635
X7.5808Y-4.685
T3
X6.175Y-4.33
X6.69Y-3.815
T4
X4.5Y-3.995
X4.5016Y-4.26
X4.6969Y-3.995
X4.6984Y-4.26
X4.72Y-1.64
X4.72Y-1.8369
X4.9306Y-3.7998
X4.9306Y-3.8998
X4.9306Y-3.9998
X4.9306Y-4.0998
X4.9306Y-4.1998
X5.06Y-1.635
X5.06Y-1.8319
X5.2306Y-3.7998
X5.2306Y-3.8998
X5.2306Y-3.9998
X5.2306Y-4.0998
X5.2306Y-4.1998
X5.4466Y-4.11
X5.6434Y-4.11
X6.8058Y-4.2848
X6.8058Y-4.3848
X7.2058Y-4.2848
X7.2058Y-4.3848
X7.335Y-4.285
X7.335Y-4.685
X7.48Y-4.2866
X7.48Y-4.4834
X7.515Y-4.105
X7.66Y-4.285
X7.66Y-4.44
X7.6627Y-3.655
X7.8596Y-3.655
X7.915Y-4.105
X8.06Y-4.285
X8.06Y-4.44
X8.14Y-3.6527
X8.14Y-3.8495
X8.335Y-1.735
X8.335Y-2.135
X8.34Y-2.675
X8.34Y-3.075
X8.64Y-3.6504
X8.64Y-3.8473
X9.09Y-3.6504
X9.09Y-3.8473
X9.525Y-3.6504
X9.525Y-3.8473
X9.94Y-3.6504
X9.94Y-3.8473
T5
X8.625Y-1.7424
X8.625Y-2.0376
X8.635Y-2.7824
X8.635Y-3.0776
T6
X5.7022Y-1.985
X5.7022Y-2.085
X5.7022Y-2.185
X5.7022Y-2.81
X5.7022Y-2.91
X5.7022Y-3.01
X8.343Y-2.3
X8.343Y-2.4
X8.343Y-2.5
T7
X9.0498Y-2.385
X9.5302Y-2.385
T8
X6.45Y-1.85
X6.45Y-2.05
X6.45Y-2.25
X6.45Y-2.45
X6.45Y-2.65
X6.45Y-2.85
X6.45Y-3.05
X7.5Y-1.85
X7.5Y-2.05
X7.5Y-2.25
X7.5Y-2.45
X7.5Y-2.65
X7.5Y-2.85
X7.5Y-3.05
T0
M30
