%TF.GenerationSoftware,KiCad,Pcbnew,7.0.2*%
%TF.CreationDate,2023-06-13T00:04:42+03:00*%
%TF.ProjectId,Push_Pull,50757368-5f50-4756-9c6c-2e6b69636164,rev?*%
%TF.SameCoordinates,Original*%
%TF.FileFunction,Copper,L2,Bot*%
%TF.FilePolarity,Positive*%
%FSLAX46Y46*%
G04 Gerber Fmt 4.6, Leading zero omitted, Abs format (unit mm)*
G04 Created by KiCad (PCBNEW 7.0.2) date 2023-06-13 00:04:42*
%MOMM*%
%LPD*%
G01*
G04 APERTURE LIST*
G04 Aperture macros list*
%AMRoundRect*
0 Rectangle with rounded corners*
0 $1 Rounding radius*
0 $2 $3 $4 $5 $6 $7 $8 $9 X,Y pos of 4 corners*
0 Add a 4 corners polygon primitive as box body*
4,1,4,$2,$3,$4,$5,$6,$7,$8,$9,$2,$3,0*
0 Add four circle primitives for the rounded corners*
1,1,$1+$1,$2,$3*
1,1,$1+$1,$4,$5*
1,1,$1+$1,$6,$7*
1,1,$1+$1,$8,$9*
0 Add four rect primitives between the rounded corners*
20,1,$1+$1,$2,$3,$4,$5,0*
20,1,$1+$1,$4,$5,$6,$7,0*
20,1,$1+$1,$6,$7,$8,$9,0*
20,1,$1+$1,$8,$9,$2,$3,0*%
G04 Aperture macros list end*
%TA.AperFunction,ComponentPad*%
%ADD10R,2.000000X1.905000*%
%TD*%
%TA.AperFunction,ComponentPad*%
%ADD11O,2.000000X1.905000*%
%TD*%
%TA.AperFunction,ComponentPad*%
%ADD12R,1.600000X1.600000*%
%TD*%
%TA.AperFunction,ComponentPad*%
%ADD13C,1.600000*%
%TD*%
%TA.AperFunction,ComponentPad*%
%ADD14O,1.600000X1.600000*%
%TD*%
%TA.AperFunction,ComponentPad*%
%ADD15C,1.400000*%
%TD*%
%TA.AperFunction,ComponentPad*%
%ADD16O,1.400000X1.400000*%
%TD*%
%TA.AperFunction,ComponentPad*%
%ADD17C,3.000000*%
%TD*%
%TA.AperFunction,ComponentPad*%
%ADD18C,2.000000*%
%TD*%
%TA.AperFunction,ComponentPad*%
%ADD19R,1.500000X1.050000*%
%TD*%
%TA.AperFunction,ComponentPad*%
%ADD20O,1.500000X1.050000*%
%TD*%
%TA.AperFunction,ComponentPad*%
%ADD21C,2.400000*%
%TD*%
%TA.AperFunction,SMDPad,CuDef*%
%ADD22RoundRect,0.250000X0.475000X-0.250000X0.475000X0.250000X-0.475000X0.250000X-0.475000X-0.250000X0*%
%TD*%
%TA.AperFunction,SMDPad,CuDef*%
%ADD23RoundRect,0.250001X2.399999X-0.487499X2.399999X0.487499X-2.399999X0.487499X-2.399999X-0.487499X0*%
%TD*%
%TA.AperFunction,SMDPad,CuDef*%
%ADD24RoundRect,0.225000X-0.250000X0.225000X-0.250000X-0.225000X0.250000X-0.225000X0.250000X0.225000X0*%
%TD*%
%TA.AperFunction,SMDPad,CuDef*%
%ADD25RoundRect,0.249999X-0.450001X-1.425001X0.450001X-1.425001X0.450001X1.425001X-0.450001X1.425001X0*%
%TD*%
%TA.AperFunction,ViaPad*%
%ADD26C,1.500000*%
%TD*%
%TA.AperFunction,Conductor*%
%ADD27C,1.500000*%
%TD*%
%TA.AperFunction,Conductor*%
%ADD28C,0.500000*%
%TD*%
%TA.AperFunction,Conductor*%
%ADD29C,1.000000*%
%TD*%
%TA.AperFunction,Conductor*%
%ADD30C,0.800000*%
%TD*%
%TA.AperFunction,Conductor*%
%ADD31C,0.250000*%
%TD*%
%TA.AperFunction,Conductor*%
%ADD32C,2.000000*%
%TD*%
%TA.AperFunction,Conductor*%
%ADD33C,2.500000*%
%TD*%
G04 APERTURE END LIST*
D10*
%TO.P,Q1,1,G*%
%TO.N,/G1*%
X144836000Y-55499000D03*
D11*
%TO.P,Q1,2,D*%
%TO.N,/SW1D*%
X144836000Y-52959000D03*
%TO.P,Q1,3,S*%
%TO.N,/Rsh*%
X144836000Y-50419000D03*
%TD*%
D12*
%TO.P,C13,1*%
%TO.N,Vout*%
X206756000Y-92777698D03*
D13*
%TO.P,C13,2*%
%TO.N,GND2*%
X206756000Y-97777698D03*
%TD*%
%TO.P,R11,1*%
%TO.N,Net-(U3-K)*%
X186309000Y-118999000D03*
D14*
%TO.P,R11,2*%
%TO.N,Net-(R11-Pad2)*%
X186309000Y-108839000D03*
%TD*%
D15*
%TO.P,R13,1*%
%TO.N,Net-(C16-Pad2)*%
X146685000Y-104394000D03*
D16*
%TO.P,R13,2*%
%TO.N,/comp*%
X146685000Y-99314000D03*
%TD*%
D13*
%TO.P,R9,1*%
%TO.N,/Vref*%
X194564000Y-108839000D03*
D14*
%TO.P,R9,2*%
%TO.N,Vout*%
X204724000Y-108839000D03*
%TD*%
D17*
%TO.P,U2,1*%
%TO.N,/SW1D*%
X163830000Y-46990000D03*
%TO.P,U2,2*%
%TO.N,N/C*%
X163830000Y-52070000D03*
%TO.P,U2,3*%
%TO.N,VDC*%
X163830000Y-57150000D03*
%TO.P,U2,4*%
%TO.N,N/C*%
X163830000Y-62230000D03*
%TO.P,U2,5*%
%TO.N,VDC*%
X163830000Y-67310000D03*
%TO.P,U2,6*%
%TO.N,N/C*%
X163830000Y-72390000D03*
%TO.P,U2,7*%
%TO.N,/SW2D*%
X163830000Y-77470000D03*
%TO.P,U2,8*%
%TO.N,/VD2*%
X190500000Y-77470000D03*
%TO.P,U2,9*%
%TO.N,N/C*%
X190500000Y-72390000D03*
%TO.P,U2,10*%
%TO.N,GND2*%
X190500000Y-67310000D03*
%TO.P,U2,11*%
X190500000Y-62230000D03*
%TO.P,U2,12*%
X190500000Y-57150000D03*
%TO.P,U2,13*%
%TO.N,N/C*%
X190500000Y-52070000D03*
%TO.P,U2,14*%
%TO.N,/VD1*%
X190500000Y-46990000D03*
%TD*%
D13*
%TO.P,R21,1*%
%TO.N,Net-(C21-Pad2)*%
X211836000Y-78105000D03*
D14*
%TO.P,R21,2*%
%TO.N,/VD2*%
X211836000Y-67945000D03*
%TD*%
D13*
%TO.P,R20,1*%
%TO.N,Net-(C20-Pad2)*%
X211709000Y-44069000D03*
D14*
%TO.P,R20,2*%
%TO.N,/VD1*%
X211709000Y-54229000D03*
%TD*%
D12*
%TO.P,C4,1*%
%TO.N,VDC*%
X128524000Y-41529000D03*
D13*
%TO.P,C4,2*%
%TO.N,GND*%
X128524000Y-46529000D03*
%TD*%
%TO.P,C3,1*%
%TO.N,GND*%
X114340000Y-108204000D03*
%TO.P,C3,2*%
%TO.N,Net-(U1-SS)*%
X119340000Y-108204000D03*
%TD*%
D18*
%TO.P,C20,1*%
%TO.N,/Vsw-out*%
X219075000Y-51756000D03*
%TO.P,C20,2*%
%TO.N,Net-(C20-Pad2)*%
X219075000Y-44256000D03*
%TD*%
D13*
%TO.P,C10,1*%
%TO.N,/CS*%
X119300000Y-101473000D03*
%TO.P,C10,2*%
%TO.N,GND*%
X114300000Y-101473000D03*
%TD*%
%TO.P,R10,1*%
%TO.N,GND2*%
X204724000Y-112776000D03*
D14*
%TO.P,R10,2*%
%TO.N,/Vref*%
X194564000Y-112776000D03*
%TD*%
D18*
%TO.P,C21,1*%
%TO.N,/Vsw-out*%
X219329000Y-70672000D03*
%TO.P,C21,2*%
%TO.N,Net-(C21-Pad2)*%
X219329000Y-78172000D03*
%TD*%
D12*
%TO.P,C11,1*%
%TO.N,Vout*%
X230886000Y-92720349D03*
D13*
%TO.P,C11,2*%
%TO.N,GND2*%
X230886000Y-97720349D03*
%TD*%
D12*
%TO.P,C14,1*%
%TO.N,Vout*%
X199633651Y-92837000D03*
D13*
%TO.P,C14,2*%
%TO.N,GND2*%
X194633651Y-92837000D03*
%TD*%
D12*
%TO.P,C5,1*%
%TO.N,VDC*%
X119888000Y-41656000D03*
D13*
%TO.P,C5,2*%
%TO.N,GND*%
X119888000Y-46656000D03*
%TD*%
D12*
%TO.P,C12,1*%
%TO.N,Vout*%
X219456000Y-92720349D03*
D13*
%TO.P,C12,2*%
%TO.N,GND2*%
X219456000Y-97720349D03*
%TD*%
D12*
%TO.P,C1,1*%
%TO.N,Vout*%
X252476000Y-92720349D03*
D13*
%TO.P,C1,2*%
%TO.N,GND2*%
X252476000Y-97720349D03*
%TD*%
%TO.P,C16,1*%
%TO.N,GND*%
X138343000Y-104394000D03*
%TO.P,C16,2*%
%TO.N,Net-(C16-Pad2)*%
X143343000Y-104394000D03*
%TD*%
D19*
%TO.P,U3,1,REF*%
%TO.N,/Vref*%
X192553000Y-116459000D03*
D20*
%TO.P,U3,2,A*%
%TO.N,GND2*%
X192553000Y-117729000D03*
%TO.P,U3,3,K*%
%TO.N,Net-(U3-K)*%
X192553000Y-118999000D03*
%TD*%
D12*
%TO.P,U1,1,Vin*%
%TO.N,VDC*%
X132857000Y-106675000D03*
D14*
%TO.P,U1,2,Vfb*%
%TO.N,GND*%
X132857000Y-104135000D03*
%TO.P,U1,3,Comp*%
%TO.N,/comp*%
X132857000Y-101595000D03*
%TO.P,U1,4,Vcc*%
%TO.N,Net-(U1-Vcc)*%
X132857000Y-99055000D03*
%TO.P,U1,5,OUT1*%
%TO.N,/OUT2*%
X132857000Y-96515000D03*
%TO.P,U1,6,OUT2*%
%TO.N,/OUT1*%
X125237000Y-96515000D03*
%TO.P,U1,7,GND*%
%TO.N,GND*%
X125237000Y-99055000D03*
%TO.P,U1,8,CS*%
%TO.N,/CS*%
X125237000Y-101595000D03*
%TO.P,U1,9,RT*%
%TO.N,Net-(U1-RT)*%
X125237000Y-104135000D03*
%TO.P,U1,10,SS*%
%TO.N,Net-(U1-SS)*%
X125237000Y-106675000D03*
%TD*%
D13*
%TO.P,C15,1*%
%TO.N,Net-(U3-K)*%
X189992000Y-113879000D03*
%TO.P,C15,2*%
%TO.N,/Vref*%
X189992000Y-108879000D03*
%TD*%
D10*
%TO.P,Q2,1,G*%
%TO.N,/G2*%
X144836000Y-76454000D03*
D11*
%TO.P,Q2,2,D*%
%TO.N,/SW2D*%
X144836000Y-73914000D03*
%TO.P,Q2,3,S*%
%TO.N,/Rsh*%
X144836000Y-71374000D03*
%TD*%
D10*
%TO.P,D1,1,K*%
%TO.N,/VD1*%
X211911000Y-58420000D03*
D11*
%TO.P,D1,2,A*%
%TO.N,/Vsw-out*%
X211911000Y-60960000D03*
%TO.P,D1,3,K*%
%TO.N,/VD2*%
X211911000Y-63500000D03*
%TD*%
D12*
%TO.P,C2,1*%
%TO.N,Vout*%
X241935000Y-92720349D03*
D13*
%TO.P,C2,2*%
%TO.N,GND2*%
X241935000Y-97720349D03*
%TD*%
%TO.P,R12,1*%
%TO.N,Net-(R11-Pad2)*%
X190881000Y-104267000D03*
D14*
%TO.P,R12,2*%
%TO.N,Vout*%
X201041000Y-104267000D03*
%TD*%
D15*
%TO.P,R5,1*%
%TO.N,GND*%
X114427000Y-104902000D03*
D16*
%TO.P,R5,2*%
%TO.N,Net-(U1-RT)*%
X122047000Y-104902000D03*
%TD*%
D21*
%TO.P,L1,1,1*%
%TO.N,/Vsw-out*%
X229866000Y-60579000D03*
%TO.P,L1,2,2*%
%TO.N,Vout*%
X242066000Y-60579000D03*
%TD*%
D22*
%TO.P,C17,1*%
%TO.N,GND*%
X111760000Y-44511000D03*
%TO.P,C17,2*%
%TO.N,VDC*%
X111760000Y-42611000D03*
%TD*%
D23*
%TO.P,R8,1*%
%TO.N,/CS*%
X122174000Y-90664500D03*
%TO.P,R8,2*%
%TO.N,/Rsh*%
X122174000Y-81039500D03*
%TD*%
D22*
%TO.P,C7,1*%
%TO.N,GND*%
X109728000Y-44511000D03*
%TO.P,C7,2*%
%TO.N,VDC*%
X109728000Y-42611000D03*
%TD*%
D24*
%TO.P,C8,1*%
%TO.N,Net-(U1-Vcc)*%
X128473000Y-99047000D03*
%TO.P,C8,2*%
%TO.N,GND*%
X128473000Y-100597000D03*
%TD*%
%TO.P,C9,1*%
%TO.N,Net-(U1-Vcc)*%
X130175000Y-99047000D03*
%TO.P,C9,2*%
%TO.N,GND*%
X130175000Y-100597000D03*
%TD*%
D25*
%TO.P,R6,1*%
%TO.N,GND*%
X131951000Y-58674000D03*
%TO.P,R6,2*%
%TO.N,/Rsh*%
X138051000Y-58674000D03*
%TD*%
D22*
%TO.P,C22,1*%
%TO.N,GND*%
X113919000Y-44511000D03*
%TO.P,C22,2*%
%TO.N,VDC*%
X113919000Y-42611000D03*
%TD*%
%TO.P,C6,1*%
%TO.N,GND*%
X107696000Y-44511000D03*
%TO.P,C6,2*%
%TO.N,VDC*%
X107696000Y-42611000D03*
%TD*%
D12*
%TO.P,U4,1*%
%TO.N,Net-(R11-Pad2)*%
X183027000Y-108834000D03*
D14*
%TO.P,U4,2*%
%TO.N,Net-(U3-K)*%
X183027000Y-111374000D03*
%TO.P,U4,3*%
%TO.N,GND*%
X172867000Y-111374000D03*
%TO.P,U4,4*%
%TO.N,/comp*%
X172867000Y-108834000D03*
%TD*%
D25*
%TO.P,R7,1*%
%TO.N,GND*%
X131951000Y-65024000D03*
%TO.P,R7,2*%
%TO.N,/Rsh*%
X138051000Y-65024000D03*
%TD*%
D26*
%TO.N,VDC*%
X169926000Y-96901000D03*
X156845000Y-109982000D03*
%TD*%
D27*
%TO.N,GND*%
X114340000Y-108204000D02*
X114340000Y-101513000D01*
D28*
X130175000Y-100597000D02*
X130175000Y-102108000D01*
D27*
X132862000Y-104140000D02*
X132857000Y-104135000D01*
D28*
X138343000Y-104394000D02*
X140890000Y-106941000D01*
D29*
X125222000Y-111887000D02*
X128473000Y-108636000D01*
D28*
X163456000Y-106941000D02*
X167889000Y-111374000D01*
D27*
X114300000Y-74422000D02*
X114300000Y-101473000D01*
X114340000Y-101513000D02*
X114300000Y-101473000D01*
D29*
X114340000Y-108204000D02*
X118023000Y-111887000D01*
D28*
X133116000Y-104394000D02*
X132857000Y-104135000D01*
D27*
X131951000Y-65024000D02*
X123698000Y-65024000D01*
D30*
X127140000Y-100597000D02*
X128473000Y-100597000D01*
D28*
X128473000Y-100597000D02*
X130175000Y-100597000D01*
D30*
X125598000Y-99055000D02*
X127140000Y-100597000D01*
D28*
X130175000Y-102108000D02*
X132202000Y-104135000D01*
D27*
X123698000Y-65024000D02*
X114300000Y-74422000D01*
D28*
X132202000Y-104135000D02*
X132857000Y-104135000D01*
X138343000Y-104394000D02*
X133116000Y-104394000D01*
D29*
X118023000Y-111887000D02*
X125222000Y-111887000D01*
D28*
X167889000Y-111374000D02*
X172867000Y-111374000D01*
X140890000Y-106941000D02*
X163456000Y-106941000D01*
D29*
X128473000Y-108636000D02*
X128473000Y-100597000D01*
D30*
X125237000Y-99055000D02*
X125598000Y-99055000D01*
%TO.N,Net-(U1-RT)*%
X122047000Y-104775000D02*
X122555000Y-104775000D01*
X122555000Y-104775000D02*
X123195000Y-104135000D01*
X123195000Y-104135000D02*
X125237000Y-104135000D01*
%TO.N,/CS*%
X119300000Y-101473000D02*
X119300000Y-97235000D01*
D31*
X125115000Y-101473000D02*
X125237000Y-101595000D01*
D30*
X119300000Y-97235000D02*
X122174000Y-94361000D01*
X119427000Y-101473000D02*
X125115000Y-101473000D01*
X122174000Y-94361000D02*
X122174000Y-90664500D01*
%TO.N,/Vref*%
X194524000Y-108879000D02*
X194564000Y-108839000D01*
X189992000Y-108879000D02*
X194524000Y-108879000D01*
X194564000Y-112776000D02*
X194564000Y-108839000D01*
X192553000Y-114787000D02*
X194564000Y-112776000D01*
X192553000Y-116459000D02*
X192553000Y-114787000D01*
%TO.N,GND2*%
X204724000Y-114935000D02*
X201930000Y-117729000D01*
X201930000Y-117729000D02*
X192553000Y-117729000D01*
X204724000Y-112776000D02*
X204724000Y-114935000D01*
D27*
X207010000Y-112776000D02*
X219456000Y-100330000D01*
X219456000Y-100330000D02*
X219456000Y-97720349D01*
X204724000Y-112776000D02*
X207010000Y-112776000D01*
D30*
%TO.N,Net-(U3-K)*%
X183027000Y-117368000D02*
X183027000Y-111374000D01*
X186309000Y-118999000D02*
X184658000Y-118999000D01*
X189992000Y-113879000D02*
X189992000Y-118999000D01*
X184658000Y-118999000D02*
X183027000Y-117368000D01*
X192553000Y-118999000D02*
X189992000Y-118999000D01*
X189992000Y-118999000D02*
X186309000Y-118999000D01*
%TO.N,Net-(R11-Pad2)*%
X186304000Y-108834000D02*
X186309000Y-108839000D01*
X186309000Y-106172000D02*
X186309000Y-108839000D01*
X190881000Y-104267000D02*
X188214000Y-104267000D01*
X183027000Y-108834000D02*
X186304000Y-108834000D01*
X188214000Y-104267000D02*
X186309000Y-106172000D01*
D31*
%TO.N,Net-(U1-Vcc)*%
X132857000Y-99055000D02*
X130183000Y-99055000D01*
X130183000Y-99055000D02*
X130175000Y-99047000D01*
X130175000Y-99047000D02*
X128473000Y-99047000D01*
D30*
%TO.N,Net-(U1-SS)*%
X119340000Y-108204000D02*
X123708000Y-108204000D01*
X123708000Y-108204000D02*
X125237000Y-106675000D01*
D32*
%TO.N,/VD1*%
X190500000Y-46990000D02*
X204474000Y-46990000D01*
D33*
X204474000Y-46990000D02*
X211840000Y-54356000D01*
D32*
X211840000Y-54356000D02*
X211840000Y-58349000D01*
%TO.N,/VD2*%
X211840000Y-70104000D02*
X211840000Y-63571000D01*
D33*
X204474000Y-77470000D02*
X211840000Y-70104000D01*
D32*
X190500000Y-77470000D02*
X204474000Y-77470000D01*
%TO.N,/SW1D*%
X159766000Y-46990000D02*
X153797000Y-52959000D01*
X153797000Y-52959000D02*
X144836000Y-52959000D01*
X163830000Y-46990000D02*
X159766000Y-46990000D01*
D30*
%TO.N,/Rsh*%
X131191000Y-77089000D02*
X126124500Y-77089000D01*
X136906000Y-71374000D02*
X131191000Y-77089000D01*
X144836000Y-71374000D02*
X136906000Y-71374000D01*
X126124500Y-77089000D02*
X122174000Y-81039500D01*
D32*
%TO.N,/SW2D*%
X145090000Y-73660000D02*
X157480000Y-73660000D01*
X144836000Y-73914000D02*
X145090000Y-73660000D01*
X157480000Y-73660000D02*
X161290000Y-77470000D01*
X161290000Y-77470000D02*
X163830000Y-77470000D01*
%TO.N,VDC*%
X169926000Y-67310000D02*
X169926000Y-96901000D01*
X163830000Y-67310000D02*
X169926000Y-67310000D01*
X133731000Y-109982000D02*
X132857000Y-109108000D01*
X132857000Y-109108000D02*
X132857000Y-106675000D01*
X156845000Y-109982000D02*
X133731000Y-109982000D01*
D28*
%TO.N,Net-(C16-Pad2)*%
X143343000Y-104394000D02*
X146431000Y-104394000D01*
%TO.N,/comp*%
X135138000Y-99314000D02*
X132857000Y-101595000D01*
X163347000Y-99314000D02*
X146431000Y-99314000D01*
X172867000Y-108834000D02*
X163347000Y-99314000D01*
X146431000Y-99314000D02*
X135138000Y-99314000D01*
%TD*%
%TA.AperFunction,Conductor*%
%TO.N,VDC*%
G36*
X171393818Y-28975685D02*
G01*
X171439573Y-29028489D01*
X171450777Y-29079218D01*
X171703204Y-69088911D01*
X171683942Y-69156073D01*
X171631428Y-69202160D01*
X171577914Y-69213686D01*
X159634708Y-69089278D01*
X159567878Y-69068896D01*
X159522675Y-69015619D01*
X159512000Y-68965285D01*
X159512000Y-62230000D01*
X161824389Y-62230000D01*
X161844804Y-62515429D01*
X161905629Y-62795041D01*
X161905631Y-62795046D01*
X161984420Y-63006288D01*
X162005634Y-63063163D01*
X162142772Y-63314313D01*
X162228517Y-63428854D01*
X162314261Y-63543395D01*
X162516605Y-63745739D01*
X162608904Y-63814833D01*
X162745686Y-63917227D01*
X162885435Y-63993535D01*
X162996839Y-64054367D01*
X163264954Y-64154369D01*
X163264957Y-64154369D01*
X163264958Y-64154370D01*
X163317217Y-64165738D01*
X163544572Y-64215196D01*
X163830000Y-64235610D01*
X164115428Y-64215196D01*
X164395046Y-64154369D01*
X164663161Y-64054367D01*
X164914315Y-63917226D01*
X165143395Y-63745739D01*
X165345739Y-63543395D01*
X165517226Y-63314315D01*
X165654367Y-63063161D01*
X165754369Y-62795046D01*
X165815196Y-62515428D01*
X165835610Y-62230000D01*
X165815196Y-61944572D01*
X165754369Y-61664954D01*
X165654367Y-61396839D01*
X165517226Y-61145685D01*
X165345739Y-60916605D01*
X165143395Y-60714261D01*
X165028855Y-60628517D01*
X164914313Y-60542772D01*
X164663163Y-60405634D01*
X164663162Y-60405633D01*
X164663161Y-60405633D01*
X164395046Y-60305631D01*
X164395041Y-60305629D01*
X164115429Y-60244804D01*
X163830000Y-60224389D01*
X163544570Y-60244804D01*
X163264958Y-60305629D01*
X162996836Y-60405634D01*
X162745686Y-60542772D01*
X162516602Y-60714263D01*
X162314263Y-60916602D01*
X162142772Y-61145686D01*
X162005634Y-61396836D01*
X161905629Y-61664958D01*
X161844804Y-61944570D01*
X161824389Y-62230000D01*
X159512000Y-62230000D01*
X159512000Y-54988000D01*
X159531685Y-54920961D01*
X159584489Y-54875206D01*
X159636000Y-54864000D01*
X166751000Y-54864000D01*
X166878000Y-42672000D01*
X162441817Y-42653893D01*
X104771493Y-42418504D01*
X104704534Y-42398546D01*
X104658995Y-42345556D01*
X104648000Y-42294509D01*
X104648000Y-29080000D01*
X104667685Y-29012961D01*
X104720489Y-28967206D01*
X104772000Y-28956000D01*
X171326779Y-28956000D01*
X171393818Y-28975685D01*
G37*
%TD.AperFunction*%
%TD*%
%TA.AperFunction,Conductor*%
%TO.N,GND2*%
G36*
X196793039Y-55010685D02*
G01*
X196838794Y-55063489D01*
X196850000Y-55115000D01*
X196850000Y-69726000D01*
X196830315Y-69793039D01*
X196777511Y-69838794D01*
X196726000Y-69850000D01*
X188214000Y-69850000D01*
X188214000Y-85471000D01*
X196726000Y-85471000D01*
X196793039Y-85490685D01*
X196838794Y-85543489D01*
X196850000Y-85594999D01*
X196850000Y-92964000D01*
X196850000Y-95885000D01*
X271529000Y-95885000D01*
X271596039Y-95904685D01*
X271641794Y-95957489D01*
X271653000Y-96009000D01*
X271653000Y-101984000D01*
X271633315Y-102051039D01*
X271580511Y-102096794D01*
X271529000Y-102108000D01*
X184528000Y-102108000D01*
X184460961Y-102088315D01*
X184415206Y-102035511D01*
X184404000Y-101984000D01*
X184404000Y-55115000D01*
X184423685Y-55047961D01*
X184476489Y-55002206D01*
X184528000Y-54991000D01*
X196726000Y-54991000D01*
X196793039Y-55010685D01*
G37*
%TD.AperFunction*%
%TD*%
%TA.AperFunction,Conductor*%
%TO.N,/Rsh*%
G36*
X146184059Y-45462621D02*
G01*
X146250516Y-45484186D01*
X146294766Y-45538257D01*
X146304565Y-45585987D01*
X146331679Y-51333915D01*
X146312311Y-51401047D01*
X146259723Y-51447050D01*
X146207680Y-51458500D01*
X144773933Y-51458500D01*
X144656111Y-51468262D01*
X144588177Y-51473892D01*
X144466086Y-51504810D01*
X144347119Y-51534937D01*
X144347116Y-51534938D01*
X144347117Y-51534938D01*
X144119395Y-51634825D01*
X143980607Y-51725499D01*
X143911215Y-51770836D01*
X143911213Y-51770837D01*
X143911214Y-51770837D01*
X143728259Y-51939259D01*
X143575529Y-52135485D01*
X143457170Y-52354194D01*
X143376429Y-52589384D01*
X143376429Y-52589386D01*
X143335500Y-52834665D01*
X143335500Y-53083335D01*
X143376429Y-53328614D01*
X143457172Y-53563810D01*
X143575526Y-53782509D01*
X143668996Y-53902600D01*
X143694639Y-53967592D01*
X143681073Y-54036132D01*
X143632604Y-54086457D01*
X143614479Y-54094942D01*
X143593670Y-54102703D01*
X143478454Y-54188954D01*
X143392204Y-54304168D01*
X143371940Y-54358500D01*
X143341909Y-54439017D01*
X143335500Y-54498627D01*
X143335500Y-54501948D01*
X143335500Y-54501949D01*
X143335500Y-56496060D01*
X143335500Y-56496078D01*
X143335501Y-56499372D01*
X143341909Y-56558983D01*
X143392204Y-56693831D01*
X143478454Y-56809046D01*
X143593669Y-56895296D01*
X143728517Y-56945591D01*
X143788127Y-56952000D01*
X145883872Y-56951999D01*
X145943483Y-56945591D01*
X146078331Y-56895296D01*
X146159781Y-56834322D01*
X146225243Y-56809906D01*
X146293516Y-56824757D01*
X146342922Y-56874162D01*
X146358089Y-56933005D01*
X146429325Y-72034915D01*
X146409957Y-72102047D01*
X146357369Y-72148050D01*
X146305326Y-72159500D01*
X145190864Y-72159500D01*
X145175526Y-72158548D01*
X145152219Y-72155642D01*
X145061536Y-72159394D01*
X145056411Y-72159500D01*
X145027933Y-72159500D01*
X145025406Y-72159709D01*
X145025389Y-72159710D01*
X144999538Y-72161852D01*
X144994428Y-72162169D01*
X144903761Y-72165920D01*
X144880781Y-72170738D01*
X144865581Y-72172952D01*
X144842180Y-72174891D01*
X144754191Y-72197172D01*
X144749202Y-72198326D01*
X144660386Y-72216950D01*
X144638515Y-72225484D01*
X144623890Y-72230169D01*
X144601120Y-72235936D01*
X144518020Y-72272386D01*
X144513288Y-72274346D01*
X144428727Y-72307343D01*
X144417600Y-72313973D01*
X144350641Y-72331397D01*
X137533941Y-72139378D01*
X137467483Y-72117813D01*
X137423233Y-72063742D01*
X137413434Y-72016012D01*
X137342377Y-56951999D01*
X137287604Y-45340142D01*
X137306973Y-45273012D01*
X137359560Y-45227009D01*
X137415093Y-45215608D01*
X146184059Y-45462621D01*
G37*
%TD.AperFunction*%
%TD*%
%TA.AperFunction,Conductor*%
%TO.N,GND*%
G36*
X132785039Y-44723685D02*
G01*
X132830794Y-44776489D01*
X132842000Y-44828000D01*
X132842000Y-72266000D01*
X132822315Y-72333039D01*
X132769511Y-72378794D01*
X132718000Y-72390000D01*
X104897868Y-72390000D01*
X104830829Y-72370315D01*
X104785074Y-72317511D01*
X104773873Y-72267138D01*
X104522148Y-44829138D01*
X104541217Y-44761920D01*
X104593599Y-44715683D01*
X104646143Y-44704000D01*
X132718000Y-44704000D01*
X132785039Y-44723685D01*
G37*
%TD.AperFunction*%
%TD*%
%TA.AperFunction,Conductor*%
%TO.N,/Vsw-out*%
G36*
X229620182Y-50544830D02*
G01*
X229687030Y-50565152D01*
X229732280Y-50618389D01*
X229743000Y-50668824D01*
X229743000Y-71758000D01*
X229723315Y-71825039D01*
X229670511Y-71870794D01*
X229619000Y-71882000D01*
X216536000Y-71882000D01*
X216468961Y-71862315D01*
X216423206Y-71809511D01*
X216412000Y-71758000D01*
X216412000Y-62103000D01*
X212376215Y-62103000D01*
X212345775Y-62099206D01*
X212198477Y-62061905D01*
X212165532Y-62059175D01*
X212018600Y-62047000D01*
X211803400Y-62047000D01*
X211689411Y-62056445D01*
X211623522Y-62061905D01*
X211476225Y-62099206D01*
X211445785Y-62103000D01*
X210821000Y-62103000D01*
X210753961Y-62083315D01*
X210708206Y-62030511D01*
X210697000Y-61979000D01*
X210697000Y-59993185D01*
X210716685Y-59926146D01*
X210769489Y-59880391D01*
X210834255Y-59869896D01*
X210849676Y-59871553D01*
X210863127Y-59873000D01*
X212958872Y-59872999D01*
X213018483Y-59866591D01*
X213130482Y-59824817D01*
X213173815Y-59817000D01*
X216412000Y-59817000D01*
X216412000Y-59816999D01*
X216408054Y-50546000D01*
X216408053Y-50544237D01*
X216427709Y-50477191D01*
X216480494Y-50431414D01*
X216533230Y-50420192D01*
X229620182Y-50544830D01*
G37*
%TD.AperFunction*%
%TD*%
%TA.AperFunction,Conductor*%
%TO.N,Vout*%
G36*
X271529539Y-50926463D02*
G01*
X271596492Y-50946439D01*
X271642017Y-50999441D01*
X271653000Y-51050462D01*
X271653000Y-94237000D01*
X271633315Y-94304039D01*
X271580511Y-94349794D01*
X271529000Y-94361000D01*
X197990000Y-94361000D01*
X197922961Y-94341315D01*
X197877206Y-94288511D01*
X197866000Y-94237000D01*
X197866000Y-85849000D01*
X197885685Y-85781961D01*
X197938489Y-85736206D01*
X197990000Y-85725000D01*
X257047999Y-85725000D01*
X257048000Y-85725000D01*
X257302000Y-72009000D01*
X242567000Y-72009000D01*
X242499961Y-71989315D01*
X242454206Y-71936511D01*
X242443000Y-71885000D01*
X242443000Y-50924540D01*
X242462685Y-50857501D01*
X242515489Y-50811746D01*
X242567536Y-50800541D01*
X271529539Y-50926463D01*
G37*
%TD.AperFunction*%
%TD*%
M02*
