%TF.GenerationSoftware,KiCad,Pcbnew,7.0.2*%
%TF.CreationDate,2023-06-13T00:04:41+03:00*%
%TF.ProjectId,Push_Pull,50757368-5f50-4756-9c6c-2e6b69636164,rev?*%
%TF.SameCoordinates,Original*%
%TF.FileFunction,Copper,L1,Top*%
%TF.FilePolarity,Positive*%
%FSLAX46Y46*%
G04 Gerber Fmt 4.6, Leading zero omitted, Abs format (unit mm)*
G04 Created by KiCad (PCBNEW 7.0.2) date 2023-06-13 00:04:41*
%MOMM*%
%LPD*%
G01*
G04 APERTURE LIST*
G04 Aperture macros list*
%AMRoundRect*
0 Rectangle with rounded corners*
0 $1 Rounding radius*
0 $2 $3 $4 $5 $6 $7 $8 $9 X,Y pos of 4 corners*
0 Add a 4 corners polygon primitive as box body*
4,1,4,$2,$3,$4,$5,$6,$7,$8,$9,$2,$3,0*
0 Add four circle primitives for the rounded corners*
1,1,$1+$1,$2,$3*
1,1,$1+$1,$4,$5*
1,1,$1+$1,$6,$7*
1,1,$1+$1,$8,$9*
0 Add four rect primitives between the rounded corners*
20,1,$1+$1,$2,$3,$4,$5,0*
20,1,$1+$1,$4,$5,$6,$7,0*
20,1,$1+$1,$6,$7,$8,$9,0*
20,1,$1+$1,$8,$9,$2,$3,0*%
G04 Aperture macros list end*
%TA.AperFunction,ComponentPad*%
%ADD10R,2.000000X1.905000*%
%TD*%
%TA.AperFunction,ComponentPad*%
%ADD11O,2.000000X1.905000*%
%TD*%
%TA.AperFunction,ComponentPad*%
%ADD12R,1.600000X1.600000*%
%TD*%
%TA.AperFunction,ComponentPad*%
%ADD13C,1.600000*%
%TD*%
%TA.AperFunction,ComponentPad*%
%ADD14O,1.600000X1.600000*%
%TD*%
%TA.AperFunction,ComponentPad*%
%ADD15C,1.400000*%
%TD*%
%TA.AperFunction,ComponentPad*%
%ADD16O,1.400000X1.400000*%
%TD*%
%TA.AperFunction,SMDPad,CuDef*%
%ADD17RoundRect,0.250001X-2.399999X0.487499X-2.399999X-0.487499X2.399999X-0.487499X2.399999X0.487499X0*%
%TD*%
%TA.AperFunction,ComponentPad*%
%ADD18C,3.000000*%
%TD*%
%TA.AperFunction,SMDPad,CuDef*%
%ADD19RoundRect,0.250001X2.399999X-0.487499X2.399999X0.487499X-2.399999X0.487499X-2.399999X-0.487499X0*%
%TD*%
%TA.AperFunction,ComponentPad*%
%ADD20C,2.000000*%
%TD*%
%TA.AperFunction,SMDPad,CuDef*%
%ADD21RoundRect,0.250000X0.325000X0.650000X-0.325000X0.650000X-0.325000X-0.650000X0.325000X-0.650000X0*%
%TD*%
%TA.AperFunction,ComponentPad*%
%ADD22R,1.500000X1.050000*%
%TD*%
%TA.AperFunction,ComponentPad*%
%ADD23O,1.500000X1.050000*%
%TD*%
%TA.AperFunction,SMDPad,CuDef*%
%ADD24RoundRect,0.250000X-0.312500X-0.625000X0.312500X-0.625000X0.312500X0.625000X-0.312500X0.625000X0*%
%TD*%
%TA.AperFunction,ComponentPad*%
%ADD25C,2.400000*%
%TD*%
%TA.AperFunction,ViaPad*%
%ADD26C,1.500000*%
%TD*%
%TA.AperFunction,Conductor*%
%ADD27C,1.500000*%
%TD*%
%TA.AperFunction,Conductor*%
%ADD28C,0.800000*%
%TD*%
%TA.AperFunction,Conductor*%
%ADD29C,1.000000*%
%TD*%
%TA.AperFunction,Conductor*%
%ADD30C,2.000000*%
%TD*%
G04 APERTURE END LIST*
D10*
%TO.P,Q1,1,G*%
%TO.N,/G1*%
X144836000Y-55499000D03*
D11*
%TO.P,Q1,2,D*%
%TO.N,/SW1D*%
X144836000Y-52959000D03*
%TO.P,Q1,3,S*%
%TO.N,/Rsh*%
X144836000Y-50419000D03*
%TD*%
D12*
%TO.P,C13,1*%
%TO.N,Vout*%
X206756000Y-92777698D03*
D13*
%TO.P,C13,2*%
%TO.N,GND2*%
X206756000Y-97777698D03*
%TD*%
%TO.P,R11,1*%
%TO.N,Net-(U3-K)*%
X186309000Y-118999000D03*
D14*
%TO.P,R11,2*%
%TO.N,Net-(R11-Pad2)*%
X186309000Y-108839000D03*
%TD*%
D15*
%TO.P,R13,1*%
%TO.N,Net-(C16-Pad2)*%
X146685000Y-104394000D03*
D16*
%TO.P,R13,2*%
%TO.N,/comp*%
X146685000Y-99314000D03*
%TD*%
D17*
%TO.P,R3,1*%
%TO.N,/Rsh*%
X152527000Y-50292000D03*
%TO.P,R3,2*%
%TO.N,/G1*%
X152527000Y-59917000D03*
%TD*%
D13*
%TO.P,R9,1*%
%TO.N,/Vref*%
X194564000Y-108839000D03*
D14*
%TO.P,R9,2*%
%TO.N,Vout*%
X204724000Y-108839000D03*
%TD*%
D18*
%TO.P,U2,1*%
%TO.N,/SW1D*%
X163830000Y-46990000D03*
%TO.P,U2,2*%
%TO.N,N/C*%
X163830000Y-52070000D03*
%TO.P,U2,3*%
%TO.N,VDC*%
X163830000Y-57150000D03*
%TO.P,U2,4*%
%TO.N,N/C*%
X163830000Y-62230000D03*
%TO.P,U2,5*%
%TO.N,VDC*%
X163830000Y-67310000D03*
%TO.P,U2,6*%
%TO.N,N/C*%
X163830000Y-72390000D03*
%TO.P,U2,7*%
%TO.N,/SW2D*%
X163830000Y-77470000D03*
%TO.P,U2,8*%
%TO.N,/VD2*%
X190500000Y-77470000D03*
%TO.P,U2,9*%
%TO.N,N/C*%
X190500000Y-72390000D03*
%TO.P,U2,10*%
%TO.N,GND2*%
X190500000Y-67310000D03*
%TO.P,U2,11*%
X190500000Y-62230000D03*
%TO.P,U2,12*%
X190500000Y-57150000D03*
%TO.P,U2,13*%
%TO.N,N/C*%
X190500000Y-52070000D03*
%TO.P,U2,14*%
%TO.N,/VD1*%
X190500000Y-46990000D03*
%TD*%
D13*
%TO.P,R21,1*%
%TO.N,Net-(C21-Pad2)*%
X211836000Y-78105000D03*
D14*
%TO.P,R21,2*%
%TO.N,/VD2*%
X211836000Y-67945000D03*
%TD*%
D19*
%TO.P,R1,1*%
%TO.N,/OUT2*%
X133096000Y-90664500D03*
%TO.P,R1,2*%
%TO.N,/G2*%
X133096000Y-81039500D03*
%TD*%
D13*
%TO.P,R20,1*%
%TO.N,Net-(C20-Pad2)*%
X211709000Y-44069000D03*
D14*
%TO.P,R20,2*%
%TO.N,/VD1*%
X211709000Y-54229000D03*
%TD*%
D12*
%TO.P,C4,1*%
%TO.N,VDC*%
X128524000Y-41529000D03*
D13*
%TO.P,C4,2*%
%TO.N,GND*%
X128524000Y-46529000D03*
%TD*%
%TO.P,C3,1*%
%TO.N,GND*%
X114340000Y-108204000D03*
%TO.P,C3,2*%
%TO.N,Net-(U1-SS)*%
X119340000Y-108204000D03*
%TD*%
D20*
%TO.P,C20,1*%
%TO.N,/Vsw-out*%
X219075000Y-51756000D03*
%TO.P,C20,2*%
%TO.N,Net-(C20-Pad2)*%
X219075000Y-44256000D03*
%TD*%
D13*
%TO.P,C10,1*%
%TO.N,/CS*%
X119300000Y-101473000D03*
%TO.P,C10,2*%
%TO.N,GND*%
X114300000Y-101473000D03*
%TD*%
D19*
%TO.P,R2,1*%
%TO.N,/OUT1*%
X124968000Y-74535500D03*
%TO.P,R2,2*%
%TO.N,/G1*%
X124968000Y-64910500D03*
%TD*%
D13*
%TO.P,R10,1*%
%TO.N,GND2*%
X204724000Y-112776000D03*
D14*
%TO.P,R10,2*%
%TO.N,/Vref*%
X194564000Y-112776000D03*
%TD*%
D20*
%TO.P,C21,1*%
%TO.N,/Vsw-out*%
X219329000Y-70672000D03*
%TO.P,C21,2*%
%TO.N,Net-(C21-Pad2)*%
X219329000Y-78172000D03*
%TD*%
D12*
%TO.P,C11,1*%
%TO.N,Vout*%
X230886000Y-92720349D03*
D13*
%TO.P,C11,2*%
%TO.N,GND2*%
X230886000Y-97720349D03*
%TD*%
D12*
%TO.P,C14,1*%
%TO.N,Vout*%
X199633651Y-92837000D03*
D13*
%TO.P,C14,2*%
%TO.N,GND2*%
X194633651Y-92837000D03*
%TD*%
D12*
%TO.P,C5,1*%
%TO.N,VDC*%
X119888000Y-41656000D03*
D13*
%TO.P,C5,2*%
%TO.N,GND*%
X119888000Y-46656000D03*
%TD*%
D12*
%TO.P,C12,1*%
%TO.N,Vout*%
X219456000Y-92720349D03*
D13*
%TO.P,C12,2*%
%TO.N,GND2*%
X219456000Y-97720349D03*
%TD*%
D12*
%TO.P,C1,1*%
%TO.N,Vout*%
X252476000Y-92720349D03*
D13*
%TO.P,C1,2*%
%TO.N,GND2*%
X252476000Y-97720349D03*
%TD*%
%TO.P,C16,1*%
%TO.N,GND*%
X138343000Y-104394000D03*
%TO.P,C16,2*%
%TO.N,Net-(C16-Pad2)*%
X143343000Y-104394000D03*
%TD*%
D21*
%TO.P,C19,1*%
%TO.N,/SW1D*%
X134444000Y-52959000D03*
%TO.P,C19,2*%
%TO.N,/Snb1*%
X131494000Y-52959000D03*
%TD*%
D22*
%TO.P,U3,1,REF*%
%TO.N,/Vref*%
X192553000Y-116459000D03*
D23*
%TO.P,U3,2,A*%
%TO.N,GND2*%
X192553000Y-117729000D03*
%TO.P,U3,3,K*%
%TO.N,Net-(U3-K)*%
X192553000Y-118999000D03*
%TD*%
D12*
%TO.P,U1,1,Vin*%
%TO.N,VDC*%
X132857000Y-106675000D03*
D14*
%TO.P,U1,2,Vfb*%
%TO.N,GND*%
X132857000Y-104135000D03*
%TO.P,U1,3,Comp*%
%TO.N,/comp*%
X132857000Y-101595000D03*
%TO.P,U1,4,Vcc*%
%TO.N,Net-(U1-Vcc)*%
X132857000Y-99055000D03*
%TO.P,U1,5,OUT1*%
%TO.N,/OUT2*%
X132857000Y-96515000D03*
%TO.P,U1,6,OUT2*%
%TO.N,/OUT1*%
X125237000Y-96515000D03*
%TO.P,U1,7,GND*%
%TO.N,GND*%
X125237000Y-99055000D03*
%TO.P,U1,8,CS*%
%TO.N,/CS*%
X125237000Y-101595000D03*
%TO.P,U1,9,RT*%
%TO.N,Net-(U1-RT)*%
X125237000Y-104135000D03*
%TO.P,U1,10,SS*%
%TO.N,Net-(U1-SS)*%
X125237000Y-106675000D03*
%TD*%
D24*
%TO.P,R17,1*%
%TO.N,/Snb2*%
X131125500Y-70993000D03*
%TO.P,R17,2*%
%TO.N,/Rsh*%
X134050500Y-70993000D03*
%TD*%
D13*
%TO.P,C15,1*%
%TO.N,Net-(U3-K)*%
X189992000Y-113879000D03*
%TO.P,C15,2*%
%TO.N,/Vref*%
X189992000Y-108879000D03*
%TD*%
D21*
%TO.P,C18,1*%
%TO.N,/SW2D*%
X134063000Y-74295000D03*
%TO.P,C18,2*%
%TO.N,/Snb2*%
X131113000Y-74295000D03*
%TD*%
D10*
%TO.P,Q2,1,G*%
%TO.N,/G2*%
X144836000Y-76454000D03*
D11*
%TO.P,Q2,2,D*%
%TO.N,/SW2D*%
X144836000Y-73914000D03*
%TO.P,Q2,3,S*%
%TO.N,/Rsh*%
X144836000Y-71374000D03*
%TD*%
D10*
%TO.P,D1,1,K*%
%TO.N,/VD1*%
X211911000Y-58420000D03*
D11*
%TO.P,D1,2,A*%
%TO.N,/Vsw-out*%
X211911000Y-60960000D03*
%TO.P,D1,3,K*%
%TO.N,/VD2*%
X211911000Y-63500000D03*
%TD*%
D17*
%TO.P,R4,1*%
%TO.N,/Rsh*%
X152400000Y-66815500D03*
%TO.P,R4,2*%
%TO.N,/G2*%
X152400000Y-76440500D03*
%TD*%
D12*
%TO.P,C2,1*%
%TO.N,Vout*%
X241935000Y-92720349D03*
D13*
%TO.P,C2,2*%
%TO.N,GND2*%
X241935000Y-97720349D03*
%TD*%
%TO.P,R12,1*%
%TO.N,Net-(R11-Pad2)*%
X190881000Y-104267000D03*
D14*
%TO.P,R12,2*%
%TO.N,Vout*%
X201041000Y-104267000D03*
%TD*%
D24*
%TO.P,R18,1*%
%TO.N,/Snb1*%
X131506500Y-49911000D03*
%TO.P,R18,2*%
%TO.N,/Rsh*%
X134431500Y-49911000D03*
%TD*%
D15*
%TO.P,R5,1*%
%TO.N,GND*%
X114427000Y-104902000D03*
D16*
%TO.P,R5,2*%
%TO.N,Net-(U1-RT)*%
X122047000Y-104902000D03*
%TD*%
D25*
%TO.P,L1,1,1*%
%TO.N,/Vsw-out*%
X229866000Y-60579000D03*
%TO.P,L1,2,2*%
%TO.N,Vout*%
X242066000Y-60579000D03*
%TD*%
D12*
%TO.P,U4,1*%
%TO.N,Net-(R11-Pad2)*%
X183027000Y-108834000D03*
D14*
%TO.P,U4,2*%
%TO.N,Net-(U3-K)*%
X183027000Y-111374000D03*
%TO.P,U4,3*%
%TO.N,GND*%
X172867000Y-111374000D03*
%TO.P,U4,4*%
%TO.N,/comp*%
X172867000Y-108834000D03*
%TD*%
D26*
%TO.N,VDC*%
X169926000Y-96901000D03*
X156845000Y-109982000D03*
%TD*%
D27*
%TO.N,/OUT2*%
X132857000Y-90903500D02*
X133096000Y-90664500D01*
X132857000Y-96515000D02*
X132857000Y-90903500D01*
%TO.N,/OUT1*%
X125237000Y-96515000D02*
X125237000Y-74804500D01*
X125237000Y-74804500D02*
X124968000Y-74535500D01*
%TO.N,Vout*%
X201041000Y-104267000D02*
X201041000Y-105156000D01*
X199633651Y-98287651D02*
X201041000Y-99695000D01*
X201041000Y-99695000D02*
X201041000Y-104267000D01*
X199633651Y-92837000D02*
X199633651Y-98287651D01*
X201041000Y-105156000D02*
X204724000Y-108839000D01*
D28*
%TO.N,/Snb2*%
X131125500Y-70993000D02*
X131125500Y-74282500D01*
X131125500Y-74282500D02*
X131113000Y-74295000D01*
D27*
%TO.N,Net-(C20-Pad2)*%
X218888000Y-44069000D02*
X219075000Y-44256000D01*
X211709000Y-44069000D02*
X218888000Y-44069000D01*
%TO.N,Net-(C21-Pad2)*%
X211836000Y-78105000D02*
X219262000Y-78105000D01*
X219262000Y-78105000D02*
X219329000Y-78172000D01*
D28*
%TO.N,/SW1D*%
X144836000Y-52959000D02*
X134444000Y-52959000D01*
%TO.N,/Rsh*%
X134431500Y-49911000D02*
X134939500Y-50419000D01*
X134431500Y-71374000D02*
X134050500Y-70993000D01*
D27*
X144836000Y-71374000D02*
X147841500Y-71374000D01*
X147841500Y-71374000D02*
X152400000Y-66815500D01*
D29*
X152527000Y-50292000D02*
X144963000Y-50292000D01*
D28*
X134939500Y-50419000D02*
X144836000Y-50419000D01*
D29*
X144963000Y-50292000D02*
X144836000Y-50419000D01*
D28*
X144836000Y-71374000D02*
X134431500Y-71374000D01*
%TO.N,/SW2D*%
X134444000Y-73914000D02*
X144836000Y-73914000D01*
X134063000Y-74295000D02*
X134444000Y-73914000D01*
D30*
%TO.N,VDC*%
X156845000Y-109982000D02*
X169926000Y-96901000D01*
D27*
%TO.N,/G1*%
X124968000Y-64910500D02*
X124968000Y-59817000D01*
D29*
X148109000Y-55499000D02*
X152527000Y-59917000D01*
X144836000Y-55499000D02*
X148109000Y-55499000D01*
D27*
X124968000Y-59817000D02*
X129286000Y-55499000D01*
X129286000Y-55499000D02*
X144836000Y-55499000D01*
%TO.N,/G2*%
X152386500Y-76454000D02*
X152400000Y-76440500D01*
X137654500Y-76481000D02*
X144809000Y-76481000D01*
X133096000Y-81039500D02*
X137654500Y-76481000D01*
X144836000Y-76454000D02*
X152386500Y-76454000D01*
X144809000Y-76481000D02*
X144836000Y-76454000D01*
%TD*%
%TA.AperFunction,Conductor*%
%TO.N,/Snb1*%
G36*
X131896039Y-48787685D02*
G01*
X131941794Y-48840489D01*
X131953000Y-48892000D01*
X131953000Y-53978000D01*
X131933315Y-54045039D01*
X131880511Y-54090794D01*
X131829000Y-54102000D01*
X128775000Y-54102000D01*
X128707961Y-54082315D01*
X128662206Y-54029511D01*
X128651000Y-53978000D01*
X128651000Y-48892000D01*
X128670685Y-48824961D01*
X128723489Y-48779206D01*
X128775000Y-48768000D01*
X131829000Y-48768000D01*
X131896039Y-48787685D01*
G37*
%TD.AperFunction*%
%TD*%
M02*
