%TF.GenerationSoftware,KiCad,Pcbnew,7.0.2*%
%TF.CreationDate,2023-06-13T00:04:42+03:00*%
%TF.ProjectId,Push_Pull,50757368-5f50-4756-9c6c-2e6b69636164,rev?*%
%TF.SameCoordinates,Original*%
%TF.FileFunction,Soldermask,Bot*%
%TF.FilePolarity,Negative*%
%FSLAX46Y46*%
G04 Gerber Fmt 4.6, Leading zero omitted, Abs format (unit mm)*
G04 Created by KiCad (PCBNEW 7.0.2) date 2023-06-13 00:04:42*
%MOMM*%
%LPD*%
G01*
G04 APERTURE LIST*
G04 Aperture macros list*
%AMRoundRect*
0 Rectangle with rounded corners*
0 $1 Rounding radius*
0 $2 $3 $4 $5 $6 $7 $8 $9 X,Y pos of 4 corners*
0 Add a 4 corners polygon primitive as box body*
4,1,4,$2,$3,$4,$5,$6,$7,$8,$9,$2,$3,0*
0 Add four circle primitives for the rounded corners*
1,1,$1+$1,$2,$3*
1,1,$1+$1,$4,$5*
1,1,$1+$1,$6,$7*
1,1,$1+$1,$8,$9*
0 Add four rect primitives between the rounded corners*
20,1,$1+$1,$2,$3,$4,$5,0*
20,1,$1+$1,$4,$5,$6,$7,0*
20,1,$1+$1,$6,$7,$8,$9,0*
20,1,$1+$1,$8,$9,$2,$3,0*%
G04 Aperture macros list end*
%ADD10R,2.000000X1.905000*%
%ADD11O,2.000000X1.905000*%
%ADD12R,1.600000X1.600000*%
%ADD13C,1.600000*%
%ADD14O,1.600000X1.600000*%
%ADD15C,1.400000*%
%ADD16O,1.400000X1.400000*%
%ADD17C,3.000000*%
%ADD18C,2.000000*%
%ADD19R,1.500000X1.050000*%
%ADD20O,1.500000X1.050000*%
%ADD21C,2.400000*%
%ADD22RoundRect,0.250000X0.475000X-0.250000X0.475000X0.250000X-0.475000X0.250000X-0.475000X-0.250000X0*%
%ADD23RoundRect,0.250001X2.399999X-0.487499X2.399999X0.487499X-2.399999X0.487499X-2.399999X-0.487499X0*%
%ADD24RoundRect,0.225000X-0.250000X0.225000X-0.250000X-0.225000X0.250000X-0.225000X0.250000X0.225000X0*%
%ADD25RoundRect,0.249999X-0.450001X-1.425001X0.450001X-1.425001X0.450001X1.425001X-0.450001X1.425001X0*%
G04 APERTURE END LIST*
D10*
%TO.C,Q1*%
X144836000Y-55499000D03*
D11*
X144836000Y-52959000D03*
X144836000Y-50419000D03*
%TD*%
D12*
%TO.C,C13*%
X206756000Y-92777698D03*
D13*
X206756000Y-97777698D03*
%TD*%
%TO.C,R11*%
X186309000Y-118999000D03*
D14*
X186309000Y-108839000D03*
%TD*%
D15*
%TO.C,R13*%
X146685000Y-104394000D03*
D16*
X146685000Y-99314000D03*
%TD*%
D13*
%TO.C,R9*%
X194564000Y-108839000D03*
D14*
X204724000Y-108839000D03*
%TD*%
D17*
%TO.C,U2*%
X163830000Y-46990000D03*
X163830000Y-52070000D03*
X163830000Y-57150000D03*
X163830000Y-62230000D03*
X163830000Y-67310000D03*
X163830000Y-72390000D03*
X163830000Y-77470000D03*
X190500000Y-77470000D03*
X190500000Y-72390000D03*
X190500000Y-67310000D03*
X190500000Y-62230000D03*
X190500000Y-57150000D03*
X190500000Y-52070000D03*
X190500000Y-46990000D03*
%TD*%
D13*
%TO.C,R21*%
X211836000Y-78105000D03*
D14*
X211836000Y-67945000D03*
%TD*%
D13*
%TO.C,R20*%
X211709000Y-44069000D03*
D14*
X211709000Y-54229000D03*
%TD*%
D12*
%TO.C,C4*%
X128524000Y-41529000D03*
D13*
X128524000Y-46529000D03*
%TD*%
%TO.C,C3*%
X114340000Y-108204000D03*
X119340000Y-108204000D03*
%TD*%
D18*
%TO.C,C20*%
X219075000Y-51756000D03*
X219075000Y-44256000D03*
%TD*%
D13*
%TO.C,C10*%
X119300000Y-101473000D03*
X114300000Y-101473000D03*
%TD*%
%TO.C,R10*%
X204724000Y-112776000D03*
D14*
X194564000Y-112776000D03*
%TD*%
D18*
%TO.C,C21*%
X219329000Y-70672000D03*
X219329000Y-78172000D03*
%TD*%
D12*
%TO.C,C11*%
X230886000Y-92720349D03*
D13*
X230886000Y-97720349D03*
%TD*%
D12*
%TO.C,C14*%
X199633651Y-92837000D03*
D13*
X194633651Y-92837000D03*
%TD*%
D12*
%TO.C,C5*%
X119888000Y-41656000D03*
D13*
X119888000Y-46656000D03*
%TD*%
D12*
%TO.C,C12*%
X219456000Y-92720349D03*
D13*
X219456000Y-97720349D03*
%TD*%
D12*
%TO.C,C1*%
X252476000Y-92720349D03*
D13*
X252476000Y-97720349D03*
%TD*%
%TO.C,C16*%
X138343000Y-104394000D03*
X143343000Y-104394000D03*
%TD*%
D19*
%TO.C,U3*%
X192553000Y-116459000D03*
D20*
X192553000Y-117729000D03*
X192553000Y-118999000D03*
%TD*%
D12*
%TO.C,U1*%
X132857000Y-106675000D03*
D14*
X132857000Y-104135000D03*
X132857000Y-101595000D03*
X132857000Y-99055000D03*
X132857000Y-96515000D03*
X125237000Y-96515000D03*
X125237000Y-99055000D03*
X125237000Y-101595000D03*
X125237000Y-104135000D03*
X125237000Y-106675000D03*
%TD*%
D13*
%TO.C,C15*%
X189992000Y-113879000D03*
X189992000Y-108879000D03*
%TD*%
D10*
%TO.C,Q2*%
X144836000Y-76454000D03*
D11*
X144836000Y-73914000D03*
X144836000Y-71374000D03*
%TD*%
D10*
%TO.C,D1*%
X211911000Y-58420000D03*
D11*
X211911000Y-60960000D03*
X211911000Y-63500000D03*
%TD*%
D12*
%TO.C,C2*%
X241935000Y-92720349D03*
D13*
X241935000Y-97720349D03*
%TD*%
%TO.C,R12*%
X190881000Y-104267000D03*
D14*
X201041000Y-104267000D03*
%TD*%
D15*
%TO.C,R5*%
X114427000Y-104902000D03*
D16*
X122047000Y-104902000D03*
%TD*%
D21*
%TO.C,L1*%
X229866000Y-60579000D03*
X242066000Y-60579000D03*
%TD*%
D22*
%TO.C,C17*%
X111760000Y-44511000D03*
X111760000Y-42611000D03*
%TD*%
D23*
%TO.C,R8*%
X122174000Y-90664500D03*
X122174000Y-81039500D03*
%TD*%
D22*
%TO.C,C7*%
X109728000Y-44511000D03*
X109728000Y-42611000D03*
%TD*%
D24*
%TO.C,C8*%
X128473000Y-99047000D03*
X128473000Y-100597000D03*
%TD*%
%TO.C,C9*%
X130175000Y-99047000D03*
X130175000Y-100597000D03*
%TD*%
D25*
%TO.C,R6*%
X131951000Y-58674000D03*
X138051000Y-58674000D03*
%TD*%
D22*
%TO.C,C22*%
X113919000Y-44511000D03*
X113919000Y-42611000D03*
%TD*%
%TO.C,C6*%
X107696000Y-44511000D03*
X107696000Y-42611000D03*
%TD*%
D12*
%TO.C,U4*%
X183027000Y-108834000D03*
D14*
X183027000Y-111374000D03*
X172867000Y-111374000D03*
X172867000Y-108834000D03*
%TD*%
D25*
%TO.C,R7*%
X131951000Y-65024000D03*
X138051000Y-65024000D03*
%TD*%
M02*
